<?xml version="1.0" encoding="iso-8859-1"?>
<!-- Generator: Adobe Illustrator 19.0.0, SVG Export Plug-In . SVG Version: 6.00 Build 0)  -->
<svg version="1.1" id="Capa_1" xmlns="http://www.w3.org/2000/svg" xmlns:xlink="http://www.w3.org/1999/xlink" x="0px" y="0px"
	 viewBox="0 0 511.998 511.998" style="enable-background:new 0 0 511.998 511.998;" xml:space="preserve">
<path style="fill:#6FD2F7;" d="M400.749,305.268c-23.69,0-46.882-8.172-65.304-23.007l-0.539-0.435l-0.013-0.027
	c-24.354-19.878-38.307-49.246-38.307-80.684c0-57.431,46.728-104.154,104.163-104.154c57.431,0,104.154,46.724,104.154,104.154
	S458.179,305.268,400.749,305.268z M400.749,135.963c-35.929,0-65.161,29.227-65.161,65.151s29.231,65.151,65.161,65.151
	c35.925,0,65.152-29.227,65.152-65.151S436.673,135.963,400.749,135.963z"/>
<path style="fill:#EFEFEF;" d="M400.749,272.348c-39.284,0-71.244-31.956-71.244-71.234s31.959-71.234,71.244-71.234
	c39.279,0,71.235,31.956,71.235,71.234S440.028,272.348,400.749,272.348z"/>
<path style="fill:#FBC8AD;" d="M252.533,415.039c-22.545,0-42.301-15.482-48.075-36.823c-7.084,5.851-16.051,9.125-25.328,9.125
	c-21.92,0-39.754-17.834-39.754-39.754c0-27.31,29.544-65.361,32.676-69.317l0.106-0.225l0.531-0.495l0.071-0.058
	c23.242-18.724,36.571-46.563,36.571-76.378c0-25.733,20.935-46.668,46.668-46.668s46.668,20.935,46.668,46.668
	c0,29.816,13.329,57.654,36.571,76.378l0.139,0.119l0.444,0.402l0.153,0.316c2.354,3.315,25.725,37.039,25.725,69.257
	c0,21.92-17.834,39.754-39.753,39.754c-9.278,0-18.246-3.274-25.33-9.127C294.834,399.555,275.074,415.039,252.533,415.039z"/>
<path style="fill:#6FD2F7;" d="M111.251,305.268c-57.43,0-104.154-46.723-104.154-104.154S53.821,96.96,111.251,96.96
	c57.435,0,104.163,46.724,104.163,104.154c0,31.438-13.954,60.806-38.307,80.684l-0.013,0.027l-0.539,0.435
	C158.134,297.096,134.942,305.268,111.251,305.268z M111.251,135.963c-35.925,0-65.152,29.227-65.152,65.151
	s29.227,65.151,65.152,65.151c35.929,0,65.161-29.227,65.161-65.151S147.181,135.963,111.251,135.963z"/>
<path style="fill:#EFEFEF;" d="M111.251,272.348c-39.279,0-71.235-31.956-71.235-71.234s31.956-71.234,71.235-71.234
	c39.284,0,71.244,31.956,71.244,71.234S150.536,272.348,111.251,272.348z"/>
<path d="M400.749,89.863c-48.63,0-90.066,31.361-105.161,74.916c-9.834-10.706-23.938-17.43-39.587-17.43
	s-29.754,6.724-39.587,17.43c-15.094-43.555-56.531-74.916-105.161-74.916C49.907,89.863,0,139.769,0,201.114
	c0,61.344,49.907,111.25,111.251,111.25c11.458,0,22.8-1.807,33.616-5.237c-6.818,12.926-12.589,27.64-12.589,40.458
	c0,25.833,21.016,46.851,46.851,46.851c7.645,0,15.111-1.886,21.764-5.377c9.136,19.619,29.176,33.075,51.641,33.075
	c13.705,0,26.946-4.943,37.283-13.918c6.145-5.335,11.029-11.88,14.385-19.148c6.649,3.485,14.107,5.366,21.745,5.366
	c25.833,0,46.851-21.016,46.851-46.851c0-14.698-4.344-29.39-9.576-41.77c11.976,4.289,24.681,6.549,37.527,6.549
	c61.345,0,111.251-49.907,111.251-111.25C512,139.769,462.093,89.863,400.749,89.863z M20.277,201.114
	c0-50.164,40.811-90.974,90.974-90.974c50.168,0,90.983,40.811,90.983,90.974c0,27.657-12.365,53.482-33.927,70.852
	c-0.118,0.095-0.233,0.192-0.346,0.291c-16.257,12.975-35.858,19.831-56.711,19.831C61.088,292.088,20.277,251.277,20.277,201.114z
	 M325.946,374.16c-7.471,0-14.642-3.179-19.676-8.722c-2.633-2.898-6.699-4.024-10.444-2.888c-3.746,1.134-6.506,4.324-7.088,8.195
	c-2.669,17.737-18.234,31.113-36.206,31.113c-17.974,0-33.533-13.374-36.195-31.11c-0.581-3.871-3.34-7.064-7.087-8.198
	c-3.745-1.134-7.812-0.011-10.446,2.887c-5.034,5.543-12.205,8.722-19.676,8.722c-14.652,0-26.573-11.921-26.573-26.573
	c0-19.052,21.153-50.089,29.408-60.602c25.781-21.227,40.548-52.451,40.548-85.871c0-18.465,15.022-33.488,33.488-33.488
	c18.465,0,33.488,15.022,33.488,33.488c0,33.315,14.677,64.448,40.309,85.671c3.795,5.554,22.723,34.58,22.723,60.801
	C352.52,362.239,340.599,374.16,325.946,374.16z M400.749,292.088c-20.852,0-40.453-6.856-56.711-19.831
	c-0.112-0.099-0.228-0.196-0.346-0.291c-21.562-17.369-33.927-43.195-33.927-70.852c0-50.164,40.815-90.974,90.983-90.974
	c50.164,0,90.974,40.811,90.974,90.974C491.723,251.277,450.912,292.088,400.749,292.088z"/>
<path d="M400.749,122.783c-43.197,0-78.341,35.138-78.341,78.331s35.143,78.331,78.341,78.331c43.193,0,78.332-35.138,78.332-78.331
	S443.941,122.783,400.749,122.783z M400.749,259.168c-32.016,0-58.064-26.043-58.064-58.054s26.047-58.054,58.064-58.054
	c32.011,0,58.055,26.043,58.055,58.054S432.76,259.168,400.749,259.168z"/>
<path d="M423.599,161.543c-4.845-2.804-11.048-1.147-13.852,3.7s-1.148,11.048,3.7,13.852c7.841,4.536,12.713,12.973,12.713,22.019
	c0,5.599,4.54,10.139,10.139,10.139s10.139-4.54,10.139-10.139C446.437,184.854,437.686,169.692,423.599,161.543z"/>
<path d="M111.251,122.783c-43.193,0-78.332,35.138-78.332,78.331s35.139,78.331,78.332,78.331c43.197,0,78.341-35.138,78.341-78.331
	S154.449,122.783,111.251,122.783z M111.251,259.168c-32.011,0-58.055-26.043-58.055-58.054s26.044-58.054,58.055-58.054
	c32.016,0,58.064,26.043,58.064,58.054S143.268,259.168,111.251,259.168z"/>
<path d="M427.512,219.543c-13.047,0-13.069,20.277,0,20.277C440.559,239.82,440.581,219.543,427.512,219.543z"/>
<path d="M253.465,327.35c-13.047,0-13.069,20.277,0,20.277C266.513,347.627,266.534,327.35,253.465,327.35z"/>
<path d="M229.809,291.527c-13.047,0-13.069,20.277,0,20.277C242.856,311.804,242.878,291.527,229.809,291.527z"/>
<path d="M277.122,291.527c-13.047,0-13.069,20.277,0,20.277C290.169,311.804,290.191,291.527,277.122,291.527z"/>
<g>
</g>
<g>
</g>
<g>
</g>
<g>
</g>
<g>
</g>
<g>
</g>
<g>
</g>
<g>
</g>
<g>
</g>
<g>
</g>
<g>
</g>
<g>
</g>
<g>
</g>
<g>
</g>
<g>
</g>
</svg>
